<mxfile host="app.diagrams.net" agent="Mozilla/5.0 (Macintosh; Intel Mac OS X 10_15_7) AppleWebKit/537.36 (KHTML, like Gecko) Chrome/133.0.0.0 Safari/537.36" version="26.0.16">
  <diagram name="第 1 页" id="KFDu_2irc9VXm3lut4qv">
    <mxGraphModel dx="1242" dy="700" grid="1" gridSize="10" guides="1" tooltips="1" connect="1" arrows="1" fold="1" page="1" pageScale="1" pageWidth="827" pageHeight="1169" math="0" shadow="0">
      <root>
        <mxCell id="0" />
        <mxCell id="1" parent="0" />
        <mxCell id="mLpagF_eACGvtYtIPMr7-11" style="edgeStyle=orthogonalEdgeStyle;rounded=0;orthogonalLoop=1;jettySize=auto;html=1;exitX=0.5;exitY=1;exitDx=0;exitDy=0;entryX=0.5;entryY=0;entryDx=0;entryDy=0;" edge="1" parent="1" source="mLpagF_eACGvtYtIPMr7-1" target="mLpagF_eACGvtYtIPMr7-2">
          <mxGeometry relative="1" as="geometry" />
        </mxCell>
        <mxCell id="mLpagF_eACGvtYtIPMr7-1" value="&lt;p style=&quot;margin: 0px; font-variant-numeric: normal; font-variant-east-asian: normal; font-variant-alternates: normal; font-size-adjust: none; font-kerning: auto; font-optical-sizing: auto; font-feature-settings: normal; font-variation-settings: normal; font-variant-position: normal; font-variant-emoji: normal; font-stretch: normal; font-size: 13px; line-height: normal; font-family: &amp;quot;Helvetica Neue&amp;quot;; text-align: start;&quot; class=&quot;p1&quot;&gt;initEvents&lt;/p&gt;" style="rounded=0;whiteSpace=wrap;html=1;" vertex="1" parent="1">
          <mxGeometry x="110" y="80" width="120" height="50" as="geometry" />
        </mxCell>
        <mxCell id="mLpagF_eACGvtYtIPMr7-2" value="&lt;p style=&quot;margin: 0px; font-variant-numeric: normal; font-variant-east-asian: normal; font-variant-alternates: normal; font-size-adjust: none; font-kerning: auto; font-optical-sizing: auto; font-feature-settings: normal; font-variation-settings: normal; font-variant-position: normal; font-variant-emoji: normal; font-stretch: normal; font-size: 13px; line-height: normal; font-family: &amp;quot;PingFang SC Semibold&amp;quot;; text-align: start;&quot; class=&quot;p1&quot;&gt;&lt;span style=&quot;font-variant-numeric: normal; font-variant-east-asian: normal; font-variant-alternates: normal; font-size-adjust: none; font-kerning: auto; font-optical-sizing: auto; font-feature-settings: normal; font-variation-settings: normal; font-variant-position: normal; font-variant-emoji: normal; font-stretch: normal; line-height: normal; font-family: &amp;quot;Helvetica Neue&amp;quot;;&quot; class=&quot;s1&quot;&gt;1.&amp;nbsp;&lt;/span&gt;&lt;span style=&quot;font-variant-numeric: normal; font-variant-east-asian: normal; font-variant-alternates: normal; font-size-adjust: none; font-kerning: auto; font-optical-sizing: auto; font-feature-settings: normal; font-variation-settings: normal; font-variant-position: normal; font-variant-emoji: normal; font-stretch: normal; line-height: normal; font-family: &amp;quot;PingFang SC&amp;quot;;&quot; class=&quot;s2&quot;&gt;&lt;b&gt;初始化事件相关属性&lt;/b&gt;&lt;/span&gt;&lt;/p&gt;" style="rounded=0;whiteSpace=wrap;html=1;" vertex="1" parent="1">
          <mxGeometry x="80" y="190" width="180" height="60" as="geometry" />
        </mxCell>
        <mxCell id="mLpagF_eACGvtYtIPMr7-3" value="&lt;p style=&quot;margin: 0px; font-variant-numeric: normal; font-variant-east-asian: normal; font-variant-alternates: normal; font-size-adjust: none; font-kerning: auto; font-optical-sizing: auto; font-feature-settings: normal; font-variation-settings: normal; font-variant-position: normal; font-variant-emoji: normal; font-stretch: normal; font-size: 13px; line-height: normal; font-family: &amp;quot;PingFang SC Semibold&amp;quot;; text-align: start;&quot; class=&quot;p1&quot;&gt;&lt;span style=&quot;font-variant-numeric: normal; font-variant-east-asian: normal; font-variant-alternates: normal; font-size-adjust: none; font-kerning: auto; font-optical-sizing: auto; font-feature-settings: normal; font-variation-settings: normal; font-variant-position: normal; font-variant-emoji: normal; font-stretch: normal; line-height: normal; font-family: &amp;quot;PingFang SC&amp;quot;;&quot; class=&quot;s1&quot;&gt;&lt;b&gt;2.处理父组件传递的事件监听器&lt;/b&gt;&lt;/span&gt;&lt;/p&gt;" style="rounded=0;whiteSpace=wrap;html=1;" vertex="1" parent="1">
          <mxGeometry x="70" y="340" width="220" height="60" as="geometry" />
        </mxCell>
        <mxCell id="mLpagF_eACGvtYtIPMr7-4" value="&lt;br&gt;1.&amp;nbsp;&lt;b&gt;初始化事件相关属&lt;/b&gt;&lt;ul class=&quot;ul1&quot;&gt;&lt;li class=&quot;li1&quot;&gt;&lt;span class=&quot;s1&quot;&gt;&lt;/span&gt;_events&amp;nbsp;对象：存储当前实例的自定义事件监听器，格式为&amp;nbsp;{ 事件名: [回调函数数组] }。&lt;/li&gt;&lt;br&gt;&lt;li class=&quot;li1&quot;&gt;&lt;span class=&quot;s1&quot;&gt;&lt;/span&gt;_hasHookEvent&amp;nbsp;&lt;span class=&quot;s2&quot;&gt;标志：标记是否存在以&lt;/span&gt;&amp;nbsp;@hook:&amp;nbsp;&lt;span class=&quot;s2&quot;&gt;开头监听生命周期钩子的事件（如&lt;/span&gt;&amp;nbsp;@hook:mounted&lt;span class=&quot;s2&quot;&gt;）&lt;/span&gt;&lt;/li&gt;&lt;li style=&quot;margin: 0px; font-variant-numeric: normal; font-variant-east-asian: normal; font-variant-alternates: normal; font-size-adjust: none; font-kerning: auto; font-optical-sizing: auto; font-feature-settings: normal; font-variation-settings: normal; font-variant-position: normal; font-variant-emoji: normal; font-stretch: normal; line-height: normal; font-family: &amp;quot;PingFang SC&amp;quot;;&quot; class=&quot;li1&quot;&gt;&lt;font&gt;&lt;span style=&quot;font-variant-numeric: normal; font-variant-east-asian: normal; font-variant-alternates: normal; font-size-adjust: none; font-kerning: auto; font-optical-sizing: auto; font-feature-settings: normal; font-variation-settings: normal; font-variant-position: normal; font-variant-emoji: normal; line-height: normal; font-family: Menlo; font-stretch: normal;&quot; class=&quot;s1&quot;&gt;&lt;/span&gt;若父组件监听了子组件的生命周期钩子（如&lt;span style=&quot;font-variant-numeric: normal; font-variant-east-asian: normal; font-variant-alternates: normal; font-size-adjust: none; font-kerning: auto; font-optical-sizing: auto; font-feature-settings: normal; font-variation-settings: normal; font-variant-position: normal; font-variant-emoji: normal; font-stretch: normal; line-height: normal; font-family: &amp;quot;Helvetica Neue&amp;quot;;&quot; class=&quot;s2&quot;&gt;&amp;nbsp;@hook:mounted&lt;/span&gt;），子组件在对应生命周期阶段会触发&lt;span style=&quot;font-variant-numeric: normal; font-variant-east-asian: normal; font-variant-alternates: normal; font-size-adjust: none; font-kerning: auto; font-optical-sizing: auto; font-feature-settings: normal; font-variation-settings: normal; font-variant-position: normal; font-variant-emoji: normal; font-stretch: normal; line-height: normal; font-family: &amp;quot;Helvetica Neue&amp;quot;;&quot; class=&quot;s2&quot;&gt;&amp;nbsp;$emit(&#39;hook:mounted&#39;)&lt;/span&gt;。&lt;/font&gt;&lt;/li&gt;&lt;/ul&gt;" style="shape=note;whiteSpace=wrap;html=1;backgroundOutline=1;darkOpacity=0.05;fontSize=11;align=left;spacingLeft=6;" vertex="1" parent="1">
          <mxGeometry x="360" y="120" width="400" height="130" as="geometry" />
        </mxCell>
        <mxCell id="mLpagF_eACGvtYtIPMr7-5" style="edgeStyle=orthogonalEdgeStyle;rounded=0;orthogonalLoop=1;jettySize=auto;html=1;exitX=1;exitY=0.5;exitDx=0;exitDy=0;entryX=-0.005;entryY=0.625;entryDx=0;entryDy=0;entryPerimeter=0;" edge="1" parent="1" source="mLpagF_eACGvtYtIPMr7-2" target="mLpagF_eACGvtYtIPMr7-4">
          <mxGeometry relative="1" as="geometry" />
        </mxCell>
        <mxCell id="mLpagF_eACGvtYtIPMr7-6" value="&lt;p style=&quot;margin: 0px; font-variant-numeric: normal; font-variant-east-asian: normal; font-variant-alternates: normal; font-size-adjust: none; font-kerning: auto; font-optical-sizing: auto; font-feature-settings: normal; font-variation-settings: normal; font-variant-position: normal; font-variant-emoji: normal; font-stretch: normal; line-height: normal; font-family: &amp;quot;Helvetica Neue&amp;quot;;&quot; class=&quot;p1&quot;&gt;&lt;font style=&quot;font-size: 11px;&quot;&gt;&amp;nbsp; 1、&amp;nbsp;&lt;b style=&quot;&quot;&gt;处理父组件传递的事件监听器&lt;/b&gt;&lt;/font&gt;&lt;/p&gt;&lt;p style=&quot;&quot;&gt;&lt;/p&gt;&lt;ul style=&quot;&quot; class=&quot;ul1&quot;&gt;&lt;li style=&quot;margin: 0px; font-variant-numeric: normal; font-variant-east-asian: normal; font-variant-alternates: normal; font-size-adjust: none; font-kerning: auto; font-optical-sizing: auto; font-feature-settings: normal; font-variation-settings: normal; font-variant-position: normal; font-variant-emoji: normal; font-stretch: normal; line-height: normal; font-family: &amp;quot;Helvetica Neue&amp;quot;;&quot; class=&quot;li1&quot;&gt;&lt;font style=&quot;font-size: 11px;&quot;&gt;从&amp;nbsp;vm.$options._parentListeners&amp;nbsp;获取父组件绑定到当前组件上的事件监听器。&lt;/font&gt;&lt;/li&gt;&lt;/ul&gt;&lt;font style=&quot;background-color: transparent; color: light-dark(rgb(0, 0, 0), rgb(255, 255, 255)); font-size: 11px;&quot;&gt;&lt;span style=&quot;font-variant-numeric: normal; font-variant-east-asian: normal; font-variant-alternates: normal; font-size-adjust: none; font-kerning: auto; font-optical-sizing: auto; font-feature-settings: normal; font-variation-settings: normal; font-variant-position: normal; font-variant-emoji: normal; font-stretch: normal; line-height: normal; font-family: &amp;quot;PingFang SC&amp;quot;;&quot; class=&quot;s2&quot;&gt;&amp;nbsp; &amp;nbsp; &amp;nbsp; &amp;nbsp; 若存在监听器，调用&lt;/span&gt;&amp;nbsp;updateComponentListeners&amp;nbsp;&lt;span style=&quot;font-variant-numeric: normal; font-variant-east-asian: normal; font-variant-alternates: normal; font-size-adjust: none; font-kerning: auto; font-optical-sizing: auto; font-feature-settings: normal; font-variation-settings: normal; font-variant-position: normal; font-variant-emoji: normal; font-stretch: normal; line-height: normal; font-family: &amp;quot;PingFang SC&amp;quot;;&quot; class=&quot;s2&quot;&gt;将事件注册到当前实例.&amp;nbsp; &amp;nbsp; &amp;nbsp; &amp;nbsp; &amp;nbsp; &amp;nbsp;2、&lt;/span&gt;&lt;/font&gt;&lt;font style=&quot;font-size: 11px;&quot;&gt;&lt;b style=&quot;background-color: transparent; color: light-dark(rgb(0, 0, 0), rgb(255, 255, 255));&quot;&gt;updateComponentListeners&amp;nbsp;的作用&lt;/b&gt;&lt;/font&gt;&lt;ul style=&quot;list-style-type: disc;&quot; class=&quot;ul1&quot;&gt;&lt;li style=&quot;margin: 0px; font-variant-numeric: normal; font-variant-east-asian: normal; font-variant-alternates: normal; font-size-adjust: none; font-kerning: auto; font-optical-sizing: auto; font-feature-settings: normal; font-variation-settings: normal; font-variant-position: normal; font-variant-emoji: normal; font-stretch: normal; line-height: normal;&quot; class=&quot;li1&quot;&gt;&lt;font style=&quot;font-size: 11px;&quot;&gt;通过&amp;nbsp;updateListeners&amp;nbsp;工具函数，对比新旧监听器，动态添加或移除事件。&lt;/font&gt;&lt;/li&gt;&lt;/ul&gt;&lt;ul style=&quot;list-style-type: disc;&quot; class=&quot;ul1&quot;&gt;&lt;li style=&quot;margin: 0px; font-variant-numeric: normal; font-variant-east-asian: normal; font-variant-alternates: normal; font-size-adjust: none; font-kerning: auto; font-optical-sizing: auto; font-feature-settings: normal; font-variation-settings: normal; font-variant-position: normal; font-variant-emoji: normal; font-stretch: normal; line-height: normal;&quot; class=&quot;li1&quot;&gt;&lt;font style=&quot;font-size: 11px;&quot;&gt;&lt;span style=&quot;font-variant-numeric: normal; font-variant-east-asian: normal; font-variant-alternates: normal; font-size-adjust: none; font-kerning: auto; font-optical-sizing: auto; font-feature-settings: normal; font-variation-settings: normal; font-variant-position: normal; font-variant-emoji: normal; font-stretch: normal; line-height: normal; font-family: &amp;quot;PingFang SC&amp;quot;;&quot; class=&quot;s2&quot;&gt;核心逻辑：将父组件传递的事件回调（如&lt;/span&gt;&amp;nbsp;@custom-event=&quot;handler&quot;&lt;span style=&quot;font-variant-numeric: normal; font-variant-east-asian: normal; font-variant-alternates: normal; font-size-adjust: none; font-kerning: auto; font-optical-sizing: auto; font-feature-settings: normal; font-variation-settings: normal; font-variant-position: normal; font-variant-emoji: normal; font-stretch: normal; line-height: normal; font-family: &amp;quot;PingFang SC&amp;quot;;&quot; class=&quot;s2&quot;&gt;）通过&lt;/span&gt;&amp;nbsp;vm.$on&amp;nbsp;&lt;span style=&quot;font-variant-numeric: normal; font-variant-east-asian: normal; font-variant-alternates: normal; font-size-adjust: none; font-kerning: auto; font-optical-sizing: auto; font-feature-settings: normal; font-variation-settings: normal; font-variant-position: normal; font-variant-emoji: normal; font-stretch: normal; line-height: normal; font-family: &amp;quot;PingFang SC&amp;quot;;&quot; class=&quot;s2&quot;&gt;注册到子组件的&lt;/span&gt;&amp;nbsp;_events&amp;nbsp;&lt;span style=&quot;font-variant-numeric: normal; font-variant-east-asian: normal; font-variant-alternates: normal; font-size-adjust: none; font-kerning: auto; font-optical-sizing: auto; font-feature-settings: normal; font-variation-settings: normal; font-variant-position: normal; font-variant-emoji: normal; font-stretch: normal; line-height: normal; font-family: &amp;quot;PingFang SC&amp;quot;;&quot; class=&quot;s2&quot;&gt;中。&lt;/span&gt;&lt;/font&gt;&lt;/li&gt;&lt;/ul&gt;&lt;p&gt;&lt;/p&gt;" style="shape=note;whiteSpace=wrap;html=1;backgroundOutline=1;darkOpacity=0.05;align=left;spacingTop=8;" vertex="1" parent="1">
          <mxGeometry x="360" y="290" width="404" height="180" as="geometry" />
        </mxCell>
        <mxCell id="mLpagF_eACGvtYtIPMr7-8" style="edgeStyle=orthogonalEdgeStyle;rounded=0;orthogonalLoop=1;jettySize=auto;html=1;exitX=1;exitY=0.5;exitDx=0;exitDy=0;entryX=0;entryY=0.375;entryDx=0;entryDy=0;entryPerimeter=0;" edge="1" parent="1" source="mLpagF_eACGvtYtIPMr7-3" target="mLpagF_eACGvtYtIPMr7-6">
          <mxGeometry relative="1" as="geometry" />
        </mxCell>
        <mxCell id="mLpagF_eACGvtYtIPMr7-10" value="&lt;ul style=&quot;text-align: start;&quot; class=&quot;ul1&quot;&gt;&lt;li style=&quot;margin: 0px; font-variant-numeric: normal; font-variant-east-asian: normal; font-variant-alternates: normal; font-size-adjust: none; font-kerning: auto; font-optical-sizing: auto; font-feature-settings: normal; font-variation-settings: normal; font-variant-position: normal; font-variant-emoji: normal; font-stretch: normal; line-height: normal; font-family: &amp;quot;Helvetica Neue&amp;quot;;&quot; class=&quot;li1&quot;&gt;&lt;font style=&quot;font-size: 11px;&quot;&gt;&lt;span style=&quot;font-variant-numeric: normal; font-variant-east-asian: normal; font-variant-alternates: normal; font-size-adjust: none; font-kerning: auto; font-optical-sizing: auto; font-feature-settings: normal; font-variation-settings: normal; font-variant-position: normal; font-variant-emoji: normal; line-height: normal; font-family: Menlo; font-stretch: normal;&quot; class=&quot;s1&quot;&gt;&lt;/span&gt;&lt;font style=&quot;color: rgb(204, 0, 0);&quot;&gt;&lt;span style=&quot;font-variant-numeric: normal; font-variant-east-asian: normal; font-variant-alternates: normal; font-size-adjust: none; font-kerning: auto; font-optical-sizing: auto; font-feature-settings: normal; font-variation-settings: normal; font-variant-position: normal; font-variant-emoji: normal; font-stretch: normal; line-height: normal; font-family: &amp;quot;PingFang SC&amp;quot;;&quot; class=&quot;s2&quot;&gt;&lt;b style=&quot;&quot;&gt;原生事件&lt;/b&gt;（如&lt;/span&gt;&amp;nbsp;@click&lt;span style=&quot;font-variant-numeric: normal; font-variant-east-asian: normal; font-variant-alternates: normal; font-size-adjust: none; font-kerning: auto; font-optical-sizing: auto; font-feature-settings: normal; font-variation-settings: normal; font-variant-position: normal; font-variant-emoji: normal; font-stretch: normal; line-height: normal; font-family: &amp;quot;PingFang SC&amp;quot;;&quot; class=&quot;s2&quot;&gt;）由模板编译器处理，通过&lt;/span&gt;&amp;nbsp;addEventListener&amp;nbsp;&lt;span style=&quot;font-variant-numeric: normal; font-variant-east-asian: normal; font-variant-alternates: normal; font-size-adjust: none; font-kerning: auto; font-optical-sizing: auto; font-feature-settings: normal; font-variation-settings: normal; font-variant-position: normal; font-variant-emoji: normal; font-stretch: normal; line-height: normal; font-family: &amp;quot;PingFang SC&amp;quot;;&quot; class=&quot;s2&quot;&gt;绑定到&lt;/span&gt; DOM &lt;/font&gt;&lt;span style=&quot;font-variant-numeric: normal; font-variant-east-asian: normal; font-variant-alternates: normal; font-size-adjust: none; font-kerning: auto; font-optical-sizing: auto; font-feature-settings: normal; font-variation-settings: normal; font-variant-position: normal; font-variant-emoji: normal; font-stretch: normal; line-height: normal; font-family: &amp;quot;PingFang SC&amp;quot;;&quot; class=&quot;s2&quot;&gt;&lt;font style=&quot;color: rgb(204, 0, 0);&quot;&gt;元素&lt;/font&gt;。&lt;/span&gt;&lt;/font&gt;&lt;/li&gt;&lt;li style=&quot;margin: 0px; font-variant-numeric: normal; font-variant-east-asian: normal; font-variant-alternates: normal; font-size-adjust: none; font-kerning: auto; font-optical-sizing: auto; font-feature-settings: normal; font-variation-settings: normal; font-variant-position: normal; font-variant-emoji: normal; font-stretch: normal; line-height: normal; font-family: &amp;quot;Helvetica Neue&amp;quot;;&quot; class=&quot;li1&quot;&gt;&lt;font style=&quot;font-size: 11px; color: rgb(204, 0, 0);&quot;&gt;&lt;span style=&quot;font-variant-numeric: normal; font-variant-east-asian: normal; font-variant-alternates: normal; font-size-adjust: none; font-kerning: auto; font-optical-sizing: auto; font-feature-settings: normal; font-variation-settings: normal; font-variant-position: normal; font-variant-emoji: normal; font-stretch: normal; line-height: normal; font-family: Menlo; font-stretch: normal;&quot; class=&quot;s1&quot;&gt;&lt;/span&gt;&lt;span style=&quot;font-variant-numeric: normal; font-variant-east-asian: normal; font-variant-alternates: normal; font-size-adjust: none; font-kerning: auto; font-optical-sizing: auto; font-feature-settings: normal; font-variation-settings: normal; font-variant-position: normal; font-variant-emoji: normal; font-stretch: normal; line-height: normal; font-family: &amp;quot;PingFang SC&amp;quot;;&quot; class=&quot;s2&quot;&gt;&lt;b style=&quot;&quot;&gt;自定义事件&lt;/b&gt;通过&lt;/span&gt; Vue &lt;span style=&quot;font-variant-numeric: normal; font-variant-east-asian: normal; font-variant-alternates: normal; font-size-adjust: none; font-kerning: auto; font-optical-sizing: auto; font-feature-settings: normal; font-variation-settings: normal; font-variant-position: normal; font-variant-emoji: normal; font-stretch: normal; line-height: normal; font-family: &amp;quot;PingFang SC&amp;quot;;&quot; class=&quot;s2&quot;&gt;自身的事件系统（&lt;/span&gt;$on,&amp;nbsp;$emit&lt;span style=&quot;font-variant-numeric: normal; font-variant-east-asian: normal; font-variant-alternates: normal; font-size-adjust: none; font-kerning: auto; font-optical-sizing: auto; font-feature-settings: normal; font-variation-settings: normal; font-variant-position: normal; font-variant-emoji: normal; font-stretch: normal; line-height: normal; font-family: &amp;quot;PingFang SC&amp;quot;;&quot; class=&quot;s2&quot;&gt;）管理，&lt;/span&gt;initEvents&amp;nbsp;&lt;span style=&quot;font-variant-numeric: normal; font-variant-east-asian: normal; font-variant-alternates: normal; font-size-adjust: none; font-kerning: auto; font-optical-sizing: auto; font-feature-settings: normal; font-variation-settings: normal; font-variant-position: normal; font-variant-emoji: normal; font-stretch: normal; line-height: normal; font-family: &amp;quot;PingFang SC&amp;quot;;&quot; class=&quot;s2&quot;&gt;仅处理后者。&lt;/span&gt;&lt;/font&gt;&lt;/li&gt;&lt;li style=&quot;margin: 0px; font-variant-numeric: normal; font-variant-east-asian: normal; font-variant-alternates: normal; font-size-adjust: none; font-kerning: auto; font-optical-sizing: auto; font-feature-settings: normal; font-variation-settings: normal; font-variant-position: normal; font-variant-emoji: normal; font-stretch: normal; line-height: normal; font-family: &amp;quot;Helvetica Neue&amp;quot;;&quot; class=&quot;li1&quot;&gt;&lt;span style=&quot;font-variant-numeric: normal; font-variant-east-asian: normal; font-variant-alternates: normal; font-size-adjust: none; font-kerning: auto; font-optical-sizing: auto; font-feature-settings: normal; font-variation-settings: normal; font-variant-position: normal; font-variant-emoji: normal; font-stretch: normal; line-height: normal; font-family: &amp;quot;PingFang SC&amp;quot;;&quot; class=&quot;s2&quot;&gt;&lt;font style=&quot;font-size: 11px;&quot;&gt;&lt;p style=&quot;margin: 0px; font-variant-numeric: normal; font-variant-east-asian: normal; font-variant-alternates: normal; font-size-adjust: none; font-kerning: auto; font-optical-sizing: auto; font-feature-settings: normal; font-variation-settings: normal; font-variant-position: normal; font-variant-emoji: normal; font-stretch: normal; line-height: normal; font-family: &amp;quot;Helvetica Neue&amp;quot;;&quot; class=&quot;p1&quot;&gt;总结流程&lt;/p&gt;&lt;ol style=&quot;&quot; class=&quot;ol1&quot;&gt;&lt;li style=&quot;margin: 0px; font-variant-numeric: normal; font-variant-east-asian: normal; font-variant-alternates: normal; font-size-adjust: none; font-kerning: auto; font-optical-sizing: auto; font-feature-settings: normal; font-variation-settings: normal; font-variant-position: normal; font-variant-emoji: normal; font-stretch: normal; line-height: normal; font-family: &amp;quot;Helvetica Neue&amp;quot;;&quot; class=&quot;li1&quot;&gt;&lt;b&gt;初始化存储结构&lt;/b&gt;：创建&amp;nbsp;_events&amp;nbsp;对象和&amp;nbsp;_hasHookEvent&amp;nbsp;标志。&lt;/li&gt;&lt;li style=&quot;margin: 0px; font-variant-numeric: normal; font-variant-east-asian: normal; font-variant-alternates: normal; font-size-adjust: none; font-kerning: auto; font-optical-sizing: auto; font-feature-settings: normal; font-variation-settings: normal; font-variant-position: normal; font-variant-emoji: normal; font-stretch: normal; line-height: normal; font-family: &amp;quot;Helvetica Neue&amp;quot;;&quot; class=&quot;li1&quot;&gt;&lt;b&gt;注册父组件事件&lt;/b&gt;：将父组件通过&amp;nbsp;v-on&amp;nbsp;绑定的事件监听器注册到当前实例。&lt;/li&gt;&lt;li style=&quot;margin: 0px; font-variant-numeric: normal; font-variant-east-asian: normal; font-variant-alternates: normal; font-size-adjust: none; font-kerning: auto; font-optical-sizing: auto; font-feature-settings: normal; font-variation-settings: normal; font-variant-position: normal; font-variant-emoji: normal; font-stretch: normal; line-height: normal; font-family: &amp;quot;Helvetica Neue&amp;quot;;&quot; class=&quot;li1&quot;&gt;&lt;b&gt;生命周期钩子事件&lt;/b&gt;：标记是否存在对生命周期钩子的事件监听，优化后续触发逻辑。&lt;/li&gt;&lt;/ol&gt;&lt;p style=&quot;margin: 0px; font-variant-numeric: normal; font-variant-east-asian: normal; font-variant-alternates: normal; font-size-adjust: none; font-kerning: auto; font-optical-sizing: auto; font-feature-settings: normal; font-variation-settings: normal; font-variant-position: normal; font-variant-emoji: normal; font-stretch: normal; line-height: normal;&quot; class=&quot;p2&quot;&gt;&lt;font style=&quot;color: rgb(204, 0, 0);&quot;&gt;通过&lt;span style=&quot;font-variant-numeric: normal; font-variant-east-asian: normal; font-variant-alternates: normal; font-size-adjust: none; font-kerning: auto; font-optical-sizing: auto; font-feature-settings: normal; font-variation-settings: normal; font-variant-position: normal; font-variant-emoji: normal; font-stretch: normal; line-height: normal; font-family: &amp;quot;Helvetica Neue&amp;quot;;&quot; class=&quot;s1&quot;&gt;&amp;nbsp;initEvents&lt;/span&gt;，&lt;span style=&quot;font-variant-numeric: normal; font-variant-east-asian: normal; font-variant-alternates: normal; font-size-adjust: none; font-kerning: auto; font-optical-sizing: auto; font-feature-settings: normal; font-variation-settings: normal; font-variant-position: normal; font-variant-emoji: normal; font-stretch: normal; line-height: normal; font-family: &amp;quot;Helvetica Neue&amp;quot;;&quot; class=&quot;s1&quot;&gt;Vue &lt;/span&gt;建立了组件间的自定义事件通信机制，使得父组件能够监听子组件通过&lt;span style=&quot;font-variant-numeric: normal; font-variant-east-asian: normal; font-variant-alternates: normal; font-size-adjust: none; font-kerning: auto; font-optical-sizing: auto; font-feature-settings: normal; font-variation-settings: normal; font-variant-position: normal; font-variant-emoji: normal; font-stretch: normal; line-height: normal; font-family: &amp;quot;Helvetica Neue&amp;quot;;&quot; class=&quot;s1&quot;&gt;&amp;nbsp;$emit&amp;nbsp;&lt;/span&gt;触发的事件，实现组件间的交互。&lt;/font&gt;&lt;/p&gt;&lt;/font&gt;&lt;/span&gt;&lt;/li&gt;&lt;/ul&gt;" style="shape=note;whiteSpace=wrap;html=1;backgroundOutline=1;darkOpacity=0.05;" vertex="1" parent="1">
          <mxGeometry x="60" y="520" width="690" height="130" as="geometry" />
        </mxCell>
        <mxCell id="mLpagF_eACGvtYtIPMr7-12" style="edgeStyle=orthogonalEdgeStyle;rounded=0;orthogonalLoop=1;jettySize=auto;html=1;exitX=0.5;exitY=1;exitDx=0;exitDy=0;entryX=0.455;entryY=-0.067;entryDx=0;entryDy=0;entryPerimeter=0;" edge="1" parent="1" source="mLpagF_eACGvtYtIPMr7-2" target="mLpagF_eACGvtYtIPMr7-3">
          <mxGeometry relative="1" as="geometry" />
        </mxCell>
      </root>
    </mxGraphModel>
  </diagram>
</mxfile>
